<svg width="575" height="444" viewBox="0 0 575 444" fill="none" xmlns="http://www.w3.org/2000/svg">
<path d="M387.117 0H254.79C152.051 0 67.3952 84.9261 67.3952 187.992V195.412C67.3952 232.516 78.9025 266.321 98.6285 296.829L0 390L143.833 344.65C175.065 368.562 214.517 381.755 256.434 381.755H387.117C491.499 381.755 574.511 296.829 574.511 195.412V187.991C574.51 84.9261 489.853 0 387.115 0H387.117ZM486.495 219.375C486.495 276.266 443.69 311.598 387.801 311.598H252.186C195.476 311.598 153.619 276.266 153.619 219.375V170.625C153.619 113.734 195.475 71.6613 252.186 71.6613H387.801C444.511 71.6613 486.495 113.733 486.495 170.625V219.375Z" fill="#EFE0B7"/>
<path d="M67.7692 353.913C59.4011 218.845 75.5795 198.203 159.819 198.203C219.511 198.203 287.572 168.009 287.572 302.39C287.572 436.771 107.86 382.841 91.2304 389.952L24.255 435.134L67.7692 353.913Z" stroke="black" stroke-width="20"/>
</svg>
