<svg width="1437" height="362" viewBox="0 0 1437 362" fill="none" xmlns="http://www.w3.org/2000/svg">
<path fill-rule="evenodd" clip-rule="evenodd" d="M0 125.546L29.9177 119.038C59.8354 112.53 119.671 99.5139 179.506 125.546C239.342 152.011 299.177 217.524 359.487 243.99C419.323 270.021 479.158 257.006 538.994 237.048C598.829 217.524 658.665 191.492 718.5 198C778.335 204.508 838.171 243.99 898.006 230.54C957.842 217.524 1017.68 152.011 1077.99 99.5139C1137.82 47.0166 1197.66 7.53525 1257.49 1.02733C1317.33 -5.48059 1377.16 20.5511 1407.08 33.5669L1437 47.0166V362H1407.08C1377.16 362 1317.33 362 1257.49 362C1197.66 362 1137.82 362 1077.99 362C1017.68 362 957.842 362 898.006 362C838.171 362 778.335 362 718.5 362C658.665 362 598.829 362 538.994 362C479.158 362 419.323 362 359.487 362C299.177 362 239.342 362 179.506 362C119.671 362 59.8354 362 29.9177 362H0V125.546Z" fill="#FEF2E8"/>
</svg>
